<?xml version="1.0" encoding="UTF-8" standalone="no"?><svg width="1790" height="540" viewBox="0 0 1790 540" fill="none" xmlns="http://www.w3.org/2000/svg">
<path d="M270 540C419.117 540 540 419.117 540 270C540 120.883 419.117 0 270 0C120.883 0 0 120.883 0 270C0 419.117 120.883 540 270 540Z" fill="url(#paint0_linear_101_194)"/>
<path d="M335.897 213.347C327.144 194.577 335.265 172.265 354.035 163.513C372.806 154.76 395.117 162.881 403.87 181.651L473.18 330.285C481.932 349.056 473.811 371.367 455.041 380.12C436.271 388.873 413.959 380.752 405.206 361.982L335.897 213.347Z" fill="white" stroke="white"/>
<path d="M394.463 225.477C410.329 212.165 412.398 188.511 399.085 172.646C385.773 156.781 362.12 154.711 346.254 168.024L246.669 251.586C230.803 264.899 228.734 288.552 242.046 304.417C255.359 320.283 279.012 322.352 294.878 309.04L394.463 225.477Z" fill="white" stroke="url(#paint1_linear_101_194)"/>
<path d="M146.776 225.19C131.145 211.602 129.489 187.916 143.076 172.286C156.664 156.655 180.35 154.999 195.98 168.586L294.092 253.874C309.723 267.461 311.379 291.147 297.792 306.778C284.204 322.408 260.519 324.065 244.888 310.477L146.776 225.19Z" fill="white" stroke="url(#paint2_linear_101_194)"/>
<path d="M204.795 212.562C213.548 193.792 205.427 171.48 186.657 162.728C167.886 153.975 145.575 162.096 136.822 180.866L67.5126 329.5C58.7599 348.271 66.8807 370.582 85.6509 379.335C104.421 388.088 126.733 379.967 135.486 361.197L204.795 212.562Z" fill="white" stroke="url(#paint3_linear_101_194)"/>
<path d="M696.262 368.5V186.975H747.407L787.952 328.75L828.497 186.975H879.907V368.5H850.227V219.57H846.252L803.322 361.08H772.582L729.652 219.57H725.677V368.5H696.262ZM1016.01 276.81V337.23C1016.19 341.117 1017.16 344.032 1018.93 345.975C1020.87 347.742 1023.79 348.89 1027.67 349.42L1026.88 371.415C1011.69 371.415 999.937 368.147 991.634 361.61C977.5 368.147 963.279 371.415 948.969 371.415C922.645 371.415 909.484 357.37 909.484 329.28C909.484 315.853 913.017 306.137 920.084 300.13C927.327 294.123 938.369 290.502 953.209 289.265L987.394 286.35V276.81C987.394 269.743 985.804 264.797 982.624 261.97C979.62 259.143 975.115 257.73 969.109 257.73C957.802 257.73 943.669 258.437 926.709 259.85L918.229 260.38L917.169 239.975C936.425 235.382 954.092 233.085 970.169 233.085C986.422 233.085 998.082 236.618 1005.15 243.685C1012.39 250.575 1016.01 261.617 1016.01 276.81ZM956.654 309.67C944.464 310.73 938.369 317.355 938.369 329.545C938.369 341.735 943.757 347.83 954.534 347.83C963.367 347.83 972.73 346.417 982.624 343.59L987.394 342V306.755L956.654 309.67ZM1052.28 368.5V236H1080.9V251.9C1095.91 242.183 1110.93 235.912 1125.95 233.085V261.97C1110.75 264.973 1097.77 268.86 1086.99 273.63L1081.16 276.015V368.5H1052.28ZM1246.08 276.81V337.23C1246.25 341.117 1247.23 344.032 1248.99 345.975C1250.94 347.742 1253.85 348.89 1257.74 349.42L1256.94 371.415C1241.75 371.415 1230 368.147 1221.7 361.61C1207.56 368.147 1193.34 371.415 1179.03 371.415C1152.71 371.415 1139.55 357.37 1139.55 329.28C1139.55 315.853 1143.08 306.137 1150.15 300.13C1157.39 294.123 1168.43 290.502 1183.27 289.265L1217.46 286.35V276.81C1217.46 269.743 1215.87 264.797 1212.69 261.97C1209.68 259.143 1205.18 257.73 1199.17 257.73C1187.87 257.73 1173.73 258.437 1156.77 259.85L1148.29 260.38L1147.23 239.975C1166.49 235.382 1184.16 233.085 1200.23 233.085C1216.49 233.085 1228.15 236.618 1235.21 243.685C1242.46 250.575 1246.08 261.617 1246.08 276.81ZM1186.72 309.67C1174.53 310.73 1168.43 317.355 1168.43 329.545C1168.43 341.735 1173.82 347.83 1184.6 347.83C1193.43 347.83 1202.79 346.417 1212.69 343.59L1217.46 342V306.755L1186.72 309.67ZM1353.62 260.645H1317.05V318.945C1317.05 329.722 1317.85 336.877 1319.44 340.41C1321.03 343.943 1325.09 345.71 1331.63 345.71L1353.36 344.915L1354.68 367.97C1342.85 370.267 1333.84 371.415 1327.65 371.415C1312.64 371.415 1302.3 367.97 1296.65 361.08C1291.17 354.19 1288.43 341.205 1288.43 322.125V260.645H1271.47V236H1288.43V197.575H1317.05V236H1353.62V260.645ZM1406.2 368.5H1377.31V180.88H1406.2V242.89C1419.27 236.353 1431.37 233.085 1442.5 233.085C1460.17 233.085 1472.18 238.12 1478.54 248.19C1485.08 258.083 1488.35 274.513 1488.35 297.48V368.5H1459.46V298.275C1459.46 283.965 1457.96 273.807 1454.96 267.8C1451.96 261.793 1445.6 258.79 1435.88 258.79C1427.4 258.79 1418.92 260.203 1410.44 263.03L1406.2 264.62V368.5ZM1529.13 250.31C1538.32 238.827 1553.51 233.085 1574.71 233.085C1595.91 233.085 1611.02 238.827 1620.03 250.31C1629.21 261.793 1633.81 279.018 1633.81 301.985C1633.81 324.952 1629.39 342.265 1620.56 353.925C1611.72 365.585 1596.44 371.415 1574.71 371.415C1552.98 371.415 1537.7 365.585 1528.87 353.925C1520.03 342.265 1515.62 324.952 1515.62 301.985C1515.62 279.018 1520.12 261.793 1529.13 250.31ZM1550.86 336.435C1554.93 343.502 1562.88 347.035 1574.71 347.035C1586.55 347.035 1594.5 343.502 1598.56 336.435C1602.63 329.368 1604.66 317.797 1604.66 301.72C1604.66 285.643 1602.45 274.248 1598.03 267.535C1593.79 260.822 1586.02 257.465 1574.71 257.465C1563.41 257.465 1555.54 260.822 1551.13 267.535C1546.89 274.248 1544.77 285.643 1544.77 301.72C1544.77 317.797 1546.8 329.368 1550.86 336.435ZM1691.38 368.5H1662.5V236H1691.12V244.215C1704.02 236.795 1716.21 233.085 1727.69 233.085C1745.36 233.085 1757.37 238.12 1763.73 248.19C1770.27 258.083 1773.53 274.513 1773.53 297.48V368.5H1744.91V298.275C1744.91 283.965 1743.32 273.807 1740.14 267.8C1737.14 261.793 1730.87 258.79 1721.33 258.79C1712.32 258.79 1703.66 260.557 1695.36 264.09L1691.38 265.68V368.5Z" fill="#EEF0FB"/>
<defs>
<linearGradient id="paint0_linear_101_194" x1="270" y1="0" x2="270" y2="540" gradientUnits="userSpaceOnUse">
<stop stop-color="#611AA5"/>
<stop offset="1" stop-color="#4C42B5"/>
</linearGradient>
<linearGradient id="paint1_linear_101_194" x1="399.085" y1="172.646" x2="242.046" y2="304.417" gradientUnits="userSpaceOnUse">
<stop stop-color="#5B25AA"/>
<stop offset="1" stop-color="#5630AE"/>
</linearGradient>
<linearGradient id="paint2_linear_101_194" x1="143.076" y1="172.286" x2="291.878" y2="301.637" gradientUnits="userSpaceOnUse">
<stop stop-color="#5C25AA"/>
<stop offset="1" stop-color="#5530AE"/>
</linearGradient>
<linearGradient id="paint3_linear_101_194" x1="186.657" y1="162.728" x2="85.6509" y2="379.335" gradientUnits="userSpaceOnUse">
<stop stop-color="#5C24A9"/>
<stop offset="1" stop-color="#5336B0"/>
</linearGradient>
</defs>
</svg>
